<?xml version="1.0" standalone="no"?>
<!DOCTYPE svg PUBLIC "-//W3C//DTD SVG 20010904//EN"
 "http://www.w3.org/TR/2001/REC-SVG-20010904/DTD/svg10.dtd">
<svg version="1.0" xmlns="http://www.w3.org/2000/svg"
 width="600.000000pt" height="600.000000pt" viewBox="0 0 600.000000 600.000000"
 preserveAspectRatio="xMidYMid meet">
<metadata>
Created by potrace 1.14, written by Peter Selinger 2001-2017
</metadata>
<g transform="translate(0.000000,600.000000) scale(0.100000,-0.100000)"
fill="#000000" stroke="none">
<path d="M0 3000 l0 -3000 3000 0 3000 0 0 3000 0 3000 -3000 0 -3000 0 0
-3000z m4405 2186 c39 -1 52 -5 57 -19 6 -14 15 -17 35 -13 29 7 30 6 33 -67
1 -10 7 -20 15 -23 10 -4 1 -27 -36 -87 -27 -45 -70 -122 -96 -172 -47 -90
-71 -99 -34 -12 11 26 15 47 10 49 -5 2 17 54 51 116 33 61 60 114 60 117 0
16 -18 1 -33 -27 -9 -18 -47 -89 -83 -158 -103 -194 -198 -405 -311 -690 -95
-241 -97 -248 -84 -264 13 -16 4 -49 -12 -39 -6 4 -8 0 -4 -10 3 -9 -9 -62
-28 -119 -18 -57 -54 -168 -80 -248 -26 -80 -54 -153 -62 -162 -9 -10 -12 -25
-8 -40 4 -15 3 -19 -3 -10 -6 10 -12 1 -21 -30 -7 -24 -11 -48 -10 -53 5 -18
-42 -156 -51 -150 -4 3 -24 -42 -43 -100 -19 -57 -30 -102 -24 -98 6 4 8 0 5
-8 -3 -8 -13 -38 -22 -66 -10 -29 -20 -53 -22 -53 -3 0 -2 9 1 20 3 11 4 20 1
20 -2 0 -12 -24 -22 -52 -9 -29 -48 -132 -86 -228 -117 -297 -121 -310 -115
-316 7 -8 14 7 72 171 37 106 73 191 75 174 0 -3 -11 -33 -24 -67 -14 -34 -20
-62 -15 -62 6 0 6 -6 0 -18 -9 -18 -55 -143 -71 -194 -5 -17 -5 -28 1 -28 5 0
6 -12 3 -26 -5 -18 -3 -25 4 -20 7 4 10 -3 8 -21 -4 -32 -35 -47 -71 -33 -28
11 -75 -5 -75 -25 0 -24 32 -77 40 -65 5 7 9 2 12 -14 6 -29 -25 -56 -65 -56
-14 0 -30 -6 -36 -14 -14 -17 -51 -28 -51 -15 0 12 -37 11 -45 -1 -3 -5 -13
-10 -21 -10 -8 0 -12 5 -9 10 3 6 2 10 -3 10 -21 0 -62 50 -62 77 0 71 24 303
32 303 4 0 8 -23 8 -51 0 -34 4 -48 11 -43 8 5 9 -29 5 -120 -4 -70 -2 -126 2
-126 5 0 12 60 16 133 4 72 13 245 21 382 20 365 26 580 16 569 -5 -5 -12 -25
-14 -44 -3 -19 -3 147 -1 370 2 223 6 430 10 460 3 30 7 125 9 210 1 85 3 166
4 180 1 14 1 54 0 89 -2 61 -2 63 -16 37 -7 -14 -13 -36 -12 -49 1 -12 1 -38
0 -57 -1 -27 -4 -31 -11 -20 -8 13 -10 12 -11 -5 -1 -11 -1 -24 0 -28 1 -5 -2
-6 -7 -3 -4 2 -66 -112 -137 -254 -71 -143 -131 -258 -133 -256 -2 2 58 126
133 276 75 150 135 279 133 287 -3 14 -378 -721 -378 -740 0 -4 -16 -40 -35
-79 -20 -39 -33 -78 -30 -85 2 -8 0 -11 -5 -8 -6 3 -10 4 -10 2 0 -3 -7 -21
-15 -41 -8 -20 -13 -36 -10 -36 3 0 11 14 18 32 9 23 15 28 19 17 3 -8 -21
-73 -54 -145 -32 -71 -77 -169 -98 -219 -21 -49 -62 -142 -90 -205 -28 -63
-88 -200 -132 -305 -44 -104 -87 -198 -95 -207 -8 -9 -12 -22 -7 -29 4 -7 3
-10 -4 -5 -13 8 -26 -29 -16 -45 4 -7 3 -9 -3 -6 -14 9 -37 -48 -27 -64 4 -7
3 -10 -3 -6 -14 9 -37 -48 -27 -64 5 -8 3 -9 -6 -4 -10 6 -12 4 -7 -9 5 -11 3
-15 -5 -10 -8 5 -9 2 -5 -10 4 -9 3 -15 -2 -12 -4 3 -13 -6 -20 -20 -6 -14 -7
-23 -2 -20 5 4 4 -7 -2 -23 -6 -17 -14 -28 -17 -26 -4 3 -12 -7 -19 -21 -14
-31 -14 -37 0 -29 5 4 3 -8 -4 -27 -8 -18 -35 -81 -60 -140 -25 -59 -53 -119
-61 -135 -27 -50 -17 -13 19 69 20 44 34 82 32 85 -6 5 -252 -554 -261 -592
-15 -60 12 -8 84 165 69 166 109 253 110 239 0 -3 -14 -37 -31 -74 -16 -37
-28 -69 -25 -72 5 -5 -23 -82 -69 -192 -15 -36 -29 -79 -31 -95 -2 -17 -6 -41
-10 -53 -4 -14 -2 -23 4 -23 6 0 13 8 15 17 4 16 5 16 6 1 0 -9 -3 -20 -9 -23
-5 -3 -10 -17 -10 -31 0 -31 -31 -44 -79 -33 -20 4 -38 5 -41 1 -3 -4 -19 -12
-36 -18 -28 -10 -31 -10 -27 7 6 21 -20 26 -47 10 -20 -14 -33 -2 -18 17 10
12 10 16 1 19 -7 3 -13 18 -13 34 0 16 -6 32 -14 35 -11 4 -6 24 25 92 93 201
183 382 191 382 11 0 11 3 -13 -60 -12 -30 -22 -68 -24 -85 -1 -16 -30 -94
-64 -172 -33 -78 -61 -150 -61 -160 1 -18 50 80 96 192 14 33 45 103 69 155
157 342 398 879 426 950 19 47 37 87 40 90 24 20 38 80 18 80 -5 0 -8 -4 -5
-9 3 -5 -1 -14 -9 -21 -14 -11 -14 -10 -6 14 6 14 18 41 28 59 9 17 16 36 15
40 -1 5 2 6 7 3 10 -7 24 22 16 35 -3 4 7 34 23 66 16 32 46 99 67 148 77 188
189 430 203 441 9 7 13 18 9 28 -4 10 -3 14 3 11 5 -3 8 3 8 12 -2 22 122 303
133 303 14 0 41 60 35 76 -3 8 -2 13 2 10 8 -5 76 123 78 147 3 31 5 37 22 53
16 17 18 22 21 52 0 7 6 10 13 6 8 -5 9 -2 5 9 -8 21 2 49 14 41 5 -3 6 3 2
12 -5 13 -3 15 7 9 9 -5 11 -4 6 4 -4 6 34 97 83 202 50 106 91 197 91 203 0
6 25 65 56 131 30 66 53 127 51 136 -2 8 2 24 9 34 8 10 14 28 14 39 0 18 -2
19 -11 6 -9 -12 -9 -11 -4 5 4 11 8 29 10 40 1 11 15 25 34 32 18 8 30 10 27
5 -3 -5 9 -12 26 -16 19 -4 34 -2 38 5 4 6 21 12 37 13 25 2 29 -1 25 -16 -5
-20 22 -25 48 -9 19 13 34 3 20 -14 -8 -9 -8 -15 0 -20 5 -3 10 -21 10 -40 0
-19 4 -36 9 -39 10 -6 9 -13 -15 -201 -9 -71 -22 -141 -29 -154 -11 -21 -13
-11 -19 82 -4 59 -4 112 0 119 5 10 4 10 -5 2 -18 -17 -53 -389 -78 -832 -3
-58 -1 -82 6 -77 6 3 11 -1 11 -9 0 -9 -4 -16 -10 -16 -5 0 -10 -5 -10 -11 0
-5 4 -8 9 -5 5 4 12 -27 16 -66 8 -94 2 -822 -7 -800 -5 13 -7 14 -7 2 -1 -8
-4 -33 -8 -54 -4 -28 -3 -37 5 -32 9 5 12 -11 12 -59 l0 -66 25 27 c14 15 25
22 25 16 0 -6 -4 -13 -9 -17 -10 -6 -45 -115 -38 -121 2 -2 11 19 21 47 21 58
30 61 15 5 -24 -87 2 -35 74 146 42 106 87 220 100 253 13 33 47 128 76 210
29 83 56 157 61 166 21 40 30 98 20 124 -7 19 -7 24 2 19 8 -5 9 -2 5 10 -4
10 12 69 37 139 24 67 68 196 97 287 29 91 59 170 67 176 8 5 15 23 17 40 4
46 37 148 51 159 17 13 76 163 76 194 1 27 27 95 28 71 0 -12 3 -11 11 3 6 10
8 25 5 33 -4 10 -2 12 6 8 7 -5 9 0 6 14 -4 14 -2 20 4 16 6 -4 8 2 3 16 -4
14 -3 20 3 17 8 -5 65 107 174 338 10 22 22 47 27 55 20 35 41 93 37 98 -5 5
-56 -99 -166 -340 -30 -65 -56 -116 -58 -114 -2 2 22 61 54 130 31 70 54 129
51 132 -3 3 17 51 44 107 35 71 49 112 49 141 0 30 -3 37 -10 26 -6 -9 -10
-10 -10 -3 0 6 4 14 10 18 5 3 7 12 4 20 -6 15 30 26 56 17 8 -3 38 -6 65 -6z
m-268 -394 c-6 -15 -17 -36 -23 -47 -6 -11 -17 -37 -24 -58 -13 -42 -33 -42
-21 1 14 46 64 141 72 136 5 -3 3 -17 -4 -32z m179 -98 c-19 -38 -35 -65 -36
-60 0 12 63 136 68 132 2 -2 -13 -35 -32 -72z m-115 -251 c-12 -20 -14 -14 -5
12 4 9 9 14 11 11 3 -2 0 -13 -6 -23z m-854 -100 c-2 -16 -4 -3 -4 27 0 30 2
43 4 28 2 -16 2 -40 0 -55z m812 -2 c-12 -29 -23 -50 -25 -48 -3 2 5 27 17 56
12 28 24 50 26 47 2 -2 -6 -27 -18 -55z m-1201 -10 c-16 -43 -94 -191 -101
-191 -11 0 2 39 23 70 10 14 28 49 40 78 12 28 27 52 32 52 5 0 8 -4 6 -9z
m379 -103 c-2 -18 -4 -6 -4 27 0 33 2 48 4 33 2 -15 2 -42 0 -60z m784 25
c-12 -20 -14 -14 -5 12 4 9 9 14 11 11 3 -2 0 -13 -6 -23z m-798 -199 c-4 -66
-9 -110 -11 -100 -5 24 8 229 14 223 3 -3 2 -58 -3 -123z m743 24 c-9 -5 -16
-16 -16 -25 0 -9 -3 -14 -6 -10 -3 3 0 22 7 41 11 30 15 33 22 20 7 -12 5 -19
-7 -26z m-756 -362 c-7 -7 -10 9 -9 45 l1 54 9 -45 c5 -28 5 -48 -1 -54z
m-504 -162 c-19 -38 -35 -66 -36 -62 0 11 63 138 68 134 2 -2 -13 -35 -32 -72z
m-42 -138 c-3 -8 -12 -12 -19 -10 -11 5 -11 11 -3 30 9 20 13 22 20 10 4 -8 5
-21 2 -30z m-43 -43 c-12 -20 -14 -14 -5 12 4 9 9 14 11 11 3 -2 0 -13 -6 -23z
m865 -209 l-14 -39 1 35 c1 19 6 38 12 42 16 11 16 3 1 -38z m94 -211 c-11
-17 -11 -17 -6 0 3 10 6 24 7 30 0 9 2 9 5 0 3 -7 0 -20 -6 -30z m-169 -10
c-12 -20 -14 -14 -5 12 4 9 9 14 11 11 3 -2 0 -13 -6 -23z m-20 -50 c-12 -20
-14 -14 -5 12 4 9 9 14 11 11 3 -2 0 -13 -6 -23z m-353 -150 c-1 -151 -6 -138
-10 30 -2 59 0 107 5 107 4 0 6 -62 5 -137z m327 72 c-10 -25 -19 -44 -21 -42
-2 2 3 25 12 51 9 26 18 45 21 42 3 -3 -3 -25 -12 -51z m-41 -104 c-9 -23 -18
-40 -20 -38 -2 2 4 22 13 45 9 23 18 40 20 38 2 -2 -4 -22 -13 -45z m-49 -128
c-9 -15 -13 -19 -10 -8 4 11 10 29 13 40 3 11 7 14 9 8 3 -7 -3 -24 -12 -40z
m205 -62 c-20 -54 -37 -86 -41 -79 -5 7 -4 17 0 23 4 5 18 45 31 88 16 50 27
74 34 67 6 -6 -2 -41 -24 -99z m-444 12 c-3 -16 -8 -84 -11 -153 -3 -68 -9
-127 -12 -130 -7 -6 6 277 14 296 9 24 15 15 9 -13z m-1035 -190 c-12 -20 -14
-14 -5 12 4 9 9 14 11 11 3 -2 0 -13 -6 -23z m-21 -49 c0 -14 -14 -33 -21 -28
-15 9 -10 31 6 31 8 0 15 -1 15 -3z m-69 -161 c-12 -20 -14 -14 -5 12 4 9 9
14 11 11 3 -2 0 -13 -6 -23z m-35 -80 c-8 -15 -15 -25 -16 -21 0 12 23 58 27
54 3 -2 -2 -17 -11 -33z m-35 -80 c-11 -21 -20 -35 -21 -31 0 12 33 78 38 74
2 -2 -6 -21 -17 -43z m-95 -210 c-8 -15 -15 -25 -16 -21 0 12 23 58 27 54 3
-2 -2 -17 -11 -33z m-67 -154 c-36 -80 -88 -176 -77 -143 8 26 112 243 115
240 2 -1 -15 -45 -38 -97z m214 6 c-3 -9 -8 -14 -10 -11 -3 3 -2 9 2 15 9 16
15 13 8 -4z m-13 -69 c-33 -81 -80 -190 -85 -194 -3 -3 -7 -3 -10 -1 -8 9 79
216 91 216 8 0 10 -7 4 -21z m-299 -143 c-12 -20 -14 -14 -5 12 4 9 9 14 11
11 3 -2 0 -13 -6 -23z m-40 -90 c-12 -20 -14 -14 -5 12 4 9 9 14 11 11 3 -2 0
-13 -6 -23z"/>
<path d="M3144 4604 c-4 -10 -65 -136 -136 -279 -71 -143 -121 -250 -111 -237
17 21 163 305 233 455 18 37 30 71 26 74 -3 3 -9 -3 -12 -13z"/>
<path d="M3186 4381 c-4 -7 -5 -15 -2 -18 9 -9 19 4 14 18 -4 11 -6 11 -12 0z"/>
<path d="M3187 4323 c-4 -3 -7 -13 -7 -22 1 -13 3 -13 11 2 11 19 8 33 -4 20z"/>
<path d="M3273 2535 c0 -38 2 -53 4 -32 2 20 2 52 0 70 -2 17 -4 1 -4 -38z"/>
<path d="M3302 2393 c-7 -12 -12 -30 -12 -40 0 -13 5 -9 15 11 9 16 14 34 12
40 -2 6 -9 1 -15 -11z"/>
<path d="M3261 2284 c0 -11 3 -14 6 -6 3 7 2 16 -1 19 -3 4 -6 -2 -5 -13z"/>
<path d="M3262 2035 c0 -16 2 -22 5 -12 2 9 2 23 0 30 -3 6 -5 -1 -5 -18z"/>
</g>
</svg>
